<svg xmlns="http://www.w3.org/2000/svg" xmlns:xlink="http://www.w3.org/1999/xlink" viewBox="0 0 504 504"><defs><style>.cls-1{fill:url(#radial-gradient);}.cls-2{fill:#5a25fb;}.cls-3{fill:#fff;}</style><radialGradient id="radial-gradient" cx="252" cy="252" r="250.5" gradientUnits="userSpaceOnUse"><stop offset="0" stop-color="#77c7d5"/><stop offset="1" stop-color="#5a25fb"/></radialGradient></defs><g id="Layer_2" data-name="Layer 2"><g id="v3"><g id="BG_circle" data-name="BG circle"><path class="cls-1" d="M252,502.5A250.5,250.5,0,0,1,74.87,74.87,250.5,250.5,0,1,1,429.13,429.13,248.87,248.87,0,0,1,252,502.5Z"/><path class="cls-2" d="M252,3A248.93,248.93,0,0,1,428.07,428.07a249,249,0,1,1-273-405.5A247.28,247.28,0,0,1,252,3m0-3C112.82,0,0,112.82,0,252S112.82,504,252,504,504,391.18,504,252,391.18,0,252,0Z"/></g><path id="water_maj" data-name="water maj" class="cls-2" d="M503.81,261.81C498.66,396.44,387.89,504,252,504S5.34,396.44.19,261.81Z"/><g id="Tramzine"><polygon class="cls-3" points="65.92 294 70.97 294.32 70.97 293.28 65.92 292.8 62.31 292.8 59.19 291.68 57.43 290.8 56.87 291.23 51.58 289.73 50.99 289.3 50.99 288.02 50.99 285.99 51.41 259.92 51.41 247.36 51.84 246.88 51.31 246.24 50.29 246.67 50.29 247.25 50.67 247.74 50.29 248.32 47.67 250.57 46.99 251.79 42.87 252.86 43.4 254.57 43.19 256.44 48.37 255.27 50.08 254.2 50.67 253.77 50.08 277.71 49.97 285.77 49.81 286.31 49.76 287.81 49.71 288.77 47.25 288.61 41.1 286.52 40.41 286.42 37.63 286.26 37.63 287.27 37.1 287.7 34.48 287.91 33.89 287.43 33.89 286.52 30.58 286.9 30.58 289.68 30.9 291.49 32.34 294.32 33.84 296.09 37.69 299.08 42.07 301.48 47.67 303.19 52.22 304.8 55.85 306.18 56.28 307.41 59.32 308.59 61.35 308.59 62.63 307.2 63.6 304.96 65.92 294"/><path class="cls-3" d="M51.42,247.84c4.56,20.09,5.83,21,7.25,25s7.7,16.17,9,17.51,2.85,2.76,2.85,2.76h-.75L67.56,291S61,279.89,58.63,273.49,55.55,265.24,55,263.2s-2.72-9.63-3.6-15.14Z"/><path class="cls-3" d="M58.57,288.79s-2.1-13.78-2.48-15.65c-.45-2.25-1.23-7.52-1.52-9.35-.33-2.05-2.93-16.68-2.93-16.68l-.1.12c.63,3.89,2.35,13.63,2.6,15.25.43,2.73,1.58,9.78,1.9,11.75s1.17,7.43,1.47,9.11,1.09,7.38,1.36,8.18l.32.16S58.83,290.3,58.57,288.79Z"/><path class="cls-3" d="M42.41,287c1-3.08,2.63-8.49,3.56-11.59,1.15-4.26,2.59-10.17,3.34-14.6.34-1.76,1.09-6.31,1.62-11.6V249a147.57,147.57,0,0,1-4,21.8c-.82,3.29-3.18,11.95-4.68,16.14Z"/><path class="cls-3" d="M42.33,286.94c.93-4.19,2.38-11.37,2.65-12.68.5-2.48,2.75-12.82,3.18-14.85s1.59-7.67,1.89-8.79.62-2.88.62-2.88l.26.1s-1.84,8.36-2.35,10.85c-1.19,5.87-3.74,17.58-4.27,19.93-.25,1.11-1.11,5.39-1.72,8.41Z"/><path class="cls-3" d="M53,269.39c.84,4.62,2.28,12.71,2.84,15.32s1,3.76,1,4.16-.21.85,0,1.09a7,7,0,0,1,.52.84l.28.14s-.3-1.71-.36-2-.24-.18-.34-.46-.77-2.66-1.11-4.42-1.6-8.56-1.84-10-1.38-7.94-1.68-10a102.33,102.33,0,0,1-1-11.59c0-.2,0,.49,0,.49,0,1.14,0,5.19.26,7.27S52.86,268.54,53,269.39Z"/></g><g id="Sundowner"><path class="cls-3" d="M166.59,321.56l-9.37-2.65-6.85-1.8L136,312.19s-8.5-3.64-9.49-4.45l-7.21-5.88-1.8-3.61-3.12-5.36a10.18,10.18,0,0,1-1.5-2.12c-.23-.67-.42-1.95,0-2.43a2.68,2.68,0,0,1,1.35-.63l0-1.49.2-.4-.22-5.44h.49l1.17.94,2.51,1.24,2.34-.12-1-4.36v-4.32l1.2.12v3.72l1.37,4.81,1.16,0v-4.18L125,278l6.37-.24.09-32.84H132l.23,28.25.39.15v4l.66.28,0-.22H134l0,.55h1.32s0-.91,0-1.56,2.35-.57,3.13-.56,2.85,0,3.2.08,1,1.2,1,1.2V266.06l2.32-.12v11.77s2,.32,2.24.77l.07-.63a3.27,3.27,0,0,1,1.55.06l0,1.14,4.46,1.57.24-22.55.14-22.32h.54l.09,21.74.07,23V283a3.72,3.72,0,0,1,.9.18c.22.11.38,1.33.38,1.33l2.22.38,9.6,1,8.14.79s4.95.25,4.95.75v.27l-.46.28V296l-.49,1.68-.84,1.56a34.19,34.19,0,0,1-1,4.21l-1,1.32-1.2,19.82ZM121.3,301.5l-2.88-2.41.84,1.66,7.21,5.89,9.49,4.44L150.37,316l6.85,1.8,9.37,2.64,8.49,2.73a32.81,32.81,0,0,0,.34-4.51c-13.09-2.7-23-4.68-29.43-6.3a98.38,98.38,0,0,1-17.6-6.73A69.92,69.92,0,0,1,121.3,301.5Z"/><polygon class="cls-3" points="173.63 286.55 154.31 241.7 154.24 240.86 145.01 277.71 145.06 277.74 154.27 241.21 154.32 242.1 173.41 286.52 173.63 286.55"/><polygon class="cls-3" points="170.85 286.27 166.53 276.2 154.32 244.32 154.34 244.77 166.29 276.09 170.64 286.25 170.85 286.27"/><polygon class="cls-3" points="139.65 275.77 145.93 260.12 154.29 237.93 154.3 238.14 146.17 260.01 139.74 276.01 139.65 275.77"/><polygon class="cls-3" points="124.47 277.93 129.53 259.26 132.02 247.4 132.03 248.07 129.77 259.15 124.57 278.18 124.47 277.93"/><path class="cls-3" d="M153.73,237.29s-2.41.5-3.29,1.5-5.57,6.27-7.84,6.89,5.93.88,7.15,0a34.68,34.68,0,0,1,3.83-2.14l.15-6.25"/></g><g id="PS_Medway" data-name="PS Medway"><path class="cls-3" d="M129.06,407.17l6.18-2.34,4.48-3,4.26-.42.21,2.34,2.56-.21s0-3.95,0-4.69,3.41-1.41,3.41,0v3.41l7,1.28s-.1-2.83-.16-3.68,3.75-1.84,3.76-.48l0,4.16,6.6,1.28,10.87,3s3.68-4.07,5.76-4.26l4.69-.43-2-36.91s1.41-1.27,5.83-1.67a14.59,14.59,0,0,1,7.25,1l1.89,35.13c2.64.24,6.42,2.66,6.42,2.66l10-.64s0-2-.11-3.51,2.35-2.35,4-1.39,2.55,4.48,2.55,4.48l6,.42L235,401s-.22-1.79-.22-3.07,4.21-1.38,4.27,0,.21,4.13.21,4.13l4.9-.21-5.75-85.47s-4.11,2.78-6.13,3.15c-1.17.21-.37,1.74-1.55,2.18s-1.81,1.18-3.19.86a7.25,7.25,0,0,1-.38-4c.27-.85,3.25-2.22,5.55-4.32,2.49-2.27,4.17-4.94,5.74-6.08l-.06-1.08a.94.94,0,0,1-.68-.83c0-.33.32-.61.86-.61s1,0,1.1.56a.57.57,0,0,1-.34.68l7.39,95.39s5.77.76,5.86,1.81.43,4.74.43,6.34-3.57,1.23-5.62,1.23c0,1.86.4,5.54.4,5.54L281.45,421l14.07,3v49c0,1.57-2.61,1.57-2.61,1.57-9.91,0-24.94-3.41-24.94-3.41l-28.29-5.54-32-6.4-22.81-5.54s-11.72-3.91-14.28-3.91h-5.33s-16.86-1-21.31-1.42-8.69-4.79-10.44-6.18-1.6-7.3-1.6-7.3V425a15.85,15.85,0,0,0-2.45-2.25c-1.26-.82-2.91-3.75-3.05-7a52,52,0,0,1,.06-5.76A4.73,4.73,0,0,1,129.06,407.17Zm7.48,22.8a21.94,21.94,0,0,0,.4,5c.47,1.44,3.82,6.45,7.68,6.74l14.07,1.06s9.37.43,11.77.35,8.63,2.32,8.63,2.32l13.7,3.73,22.38,5.11,27.28,4.9s30.92,5.6,42.16,7.14c1.07.15,3.35.27,4-.1v-20l-24.84-1.35-31.54-2.06-39-5.75-14.06-3.62H154.21L150,432.32h-3.2l-10.21-5.48Z"/><path class="cls-3" d="M259.1,366.3c8,19.42,16.43,39.42,20.86,48.68v2c-8.71-19.18-16.84-39.21-21.74-50.94s-16.41-40.28-17.8-44.92l-.22-2.82C244.23,330.1,255.42,357.41,259.1,366.3Z"/><path class="cls-3" d="M280,413.22c.16-1,.82-1.28.8-.4-.06,1.92.64,1.44.64,3.43s.05,4.77.05,4.77l-1.49-.17Z"/><path class="cls-3" d="M236,332.57c-1.36,5.76-7.43,40.45-9,48.2s-2.43,12.46-2.8,14.94a28.54,28.54,0,0,1-.8,3.69l.51,1s2-11.34,3.49-18.21,5.27-28.06,6.47-34.77,3.68-18.62,4.08-21.5.81-4.64.81-4.64l-.12-1.84S237.36,326.82,236,332.57Z"/><polygon class="cls-3" points="187.46 379.57 169.14 405.3 169.6 405.42 187.52 380.62 187.46 379.57"/><polygon class="cls-3" points="201.05 388.31 208.13 403.33 207.06 402.7 201.14 390.13 201.05 388.31"/><polygon class="cls-3" points="201.34 393.75 205.75 402.01 204.88 401.6 201.34 394.92 201.34 393.75"/><polygon class="cls-3" points="240.93 354 230.51 402.69 231.05 402.49 241.11 356.6 240.93 354"/><polygon class="cls-3" points="279.33 420.78 243.05 355 243.21 357.14 278.36 420.67 279.33 420.78"/><path class="cls-3" d="M261.19,418.72s-3.34-10.86-4.78-15.49-13.76-53.39-13.76-53.39l.17,2.23s12,48.31,13,51.42l4.69,15.23Z"/><path class="cls-3" d="M264.43,418.72s-3.35-10.86-4.79-15.49-19.06-79.88-19.06-79.88l.17,2.23s17.35,74.8,18.31,77.91l4.69,15.23Z"/><path class="cls-3" d="M292.91,407.06v16.39l-.86-.18v-8.85a64.77,64.77,0,0,0-6.6,0c-1.23.21-2.35-1.76-3-1.71s1.12-2.72,2.61-3.25a50.22,50.22,0,0,1,6.94-1l0-1.43Z"/><path class="cls-3" d="M136,393.07v11.22l-.47.32v-7.46s-2.8,3.36-4.77,3.68c-.68.11-.91-2-1.26-2s1.46-1.5,2.64-2.29,2.69-2.52,3.36-2.69l0-.79Z"/></g><g id="MV_Royal_Dandelion" data-name="MV Royal Dandelion"><path class="cls-3" d="M245,233l0-3.08a2.13,2.13,0,0,1-2-2.13v-3.34c0-2.36,5.7-3.35,5.7-3.35V207.87c0-1.66,3.72-2.23,5-2.23H258c1.23,0,3.94,9.65,3.94,9.65l1.26-.36-.12-10.53,1.73-.7s7.81,12.84,7.81,15.94v11.78s1.36-2.61,3.35-2.61a9.58,9.58,0,0,1,.88-5.09l-1.26-13-3.23-45.57-9-.44,0-1.5,9-.82-1.62-21.91s-13.54,4.1-8.35.74,8-10.43,10.21-10.62l2.23-.19,2.35,31.78,10.57-.17-.09,1.39L277.16,165l5.14,59.48s2.35-.45,2.32.33l0,.79,4.77-.1s0-5.21.18-7.44,5.76-2.88,5.76-2.88,2.23-9.29,4.09-10.59l1.86-1.31s-.19-17.47,0-19.51,9.2-1.77,9.2-1.77l.09-4.09,3.72.09.28,4,6.5.09L321,201.43l4.37,1.52s-.74-22.44-.74-25.6,8.64-3.81,8.64-3.81V170.1s-3.85.19-3.9-.65-.47-2.88,1.3-3.9,8.27-.75,9.85,0a2.8,2.8,0,0,1,1.49,3.5c-.47,1-5,1-5,1l.07,3,4.39.45s5.1.27,5.2,2.33l.84,16.45,7.9.28V195l-1.39.19.05,6.51h17.24v7.46l12.26,0L373.9,89.44c-3.41.15-7.06,5.28-12.79,5.28,5.73-5.2,6.71-11.54,12-15.93l-.43-5.63H376l11.45,135.61,15.33-.28-.11,14.13,21,.18v7.44l.28,13.94s2-8.34,3.47-8.3l4.24.12v10.33l2.58.08,0-2.65h1.27l0-2.55h2.14v2.6c2.65,0,3.72,3.35,3.72,3.35s.55-2.16,1.36-2.11l2,.12v-8.8c0-2.41,5.05.28,5.05.28l1.76,1.83v9.17l14.39-5-.14-26.16,1.62-.24,1.48,29,6.32-.19v10.22l-1.48,4.84L471.16,268l-2.57,25.65,0,27.4s-11.28.28-23.3.28c-28.38,0-58.62-9-67.66-9.33s-24.7.62-34.21-.13-18.75-3.71-34.2-5.45c-12-1.35-17.37-1-22.31-2-11.28-2.23-25.4-11.15-44.49-17.59-3.72-1.25-7.19-2.74-8.43-4.47V247.18a2.75,2.75,0,0,1,3.35-3s.05-3.73.12-5.7c.13-3.33,5.83-2.6,5.83-2.6S242.89,233.15,245,233ZM466.3,294.77c-19.55,1.75-73.77,1.2-99.16.05s-55.23-2.18-77.16-4.66-53.86-15.82-53.86-15.82v3.55c0,3.47,4.65,5,9.91,6.81,4.38,1.51,23.72,9.59,29.33,12.4s12.39,4.34,24.78,4.83,34.55,6,44.49,6.89,28.51-.57,37.06.67c17.21,2.5,36.43,8.43,53,9.05a269.81,269.81,0,0,0,31.55-.8Z"/><path class="cls-3" d="M408.58,151.23c15.74,29.87,29.87,53.67,35.32,62.09S463,243.73,463,243.73l-.93.32s-39.82-62.82-52-86.87-33.45-76.57-33.45-76.57l-.32-3.73S403.7,142,408.58,151.23Z"/><polygon class="cls-3" points="374.08 91.75 346.62 175.87 346.74 178.26 374.24 93.78 374.08 91.75"/><path class="cls-3" d="M384,119.76c5.74,19.82,17.33,58.85,21.08,69.52,3.54,10.07,12.38,33.47,12.38,33.47h-1.26S405.08,194,400,176.7s-13.65-45.14-16.36-55.3c-2.88-10.78-4.86-15.52-5.13-18.69l-.28-3.34S382.76,115.39,384,119.76Z"/><path class="cls-3" d="M370.78,160.47c-6.24,12.37-15.43,32.13-15.43,32.13v1.27s11.34-22.68,14.94-30.24,7.46-16.86,8-19.58l-.13-2.73C376.9,148.35,373,156,370.78,160.47Z"/><path class="cls-3" d="M420.72,193.87c12.81,16.62,23.14,29.62,32.23,39.9L462,244.05l-2.11.73S442.41,224.1,431.51,210s-22.28-28.9-29.25-38.92-20.52-29.74-20.52-29.74l-.19-2.24S405.36,173.91,420.72,193.87Z"/><polygon class="cls-3" points="273.12 175.6 267.61 208.49 268.49 210.09 273.34 178.76 273.12 175.6"/><path class="cls-3" d="M275.56,139.88s9.8,25.39,14.08,33.57,11.55,20.42,11.55,20.42V196s-10.9-18-14.8-27.32-10.83-26.21-10.83-26.21Z"/><path class="cls-3" d="M271.14,145.49s-3.34,21.77-5,30.11-5.81,34.49-5.81,34.49l.61,1.81s3.42-22.28,4.91-30.64,5.52-32.91,5.52-32.91Z"/><path class="cls-3" d="M277.32,166.85s7.65,14.18,12,21.63c4,6.84,10,16.11,10,16.11l-.78.93s-8.52-13.2-12.42-20.27-8.88-16.17-8.88-16.17Z"/></g></g></g></svg>